# Blender v2.83.1 OBJ File: ''
# www.blender.org
mtllib pos_axis_y.mtl
o Cylinder
v 0.000000 1.534105 -0.184954
v 0.070779 1.534105 -0.170875
v 0.130782 1.534105 -0.130782
v 0.170876 1.534105 -0.070779
v 0.184954 1.534105 0.000000
v 0.170876 1.534105 0.070779
v 0.130782 1.534105 0.130782
v 0.070779 1.534105 0.170875
v 0.000000 1.534105 0.184954
v -0.070779 1.534105 0.170875
v -0.130782 1.534105 0.130782
v -0.170875 1.534105 0.070779
v 0.000000 1.995300 0.000000
v -0.184954 1.534105 0.000000
v -0.170875 1.534105 -0.070779
v -0.130782 1.534105 -0.130782
v -0.070779 1.534105 -0.170875
v -0.000000 0.000000 -0.059533
v -0.000000 1.555046 -0.059533
v 0.051557 0.000000 0.029767
v 0.051557 1.555046 0.029767
v -0.051557 0.000000 0.029767
v -0.051558 1.555046 0.029767
vt 1.000000 0.500000
vt 0.937500 1.000000
vt 0.937500 0.500000
vt 0.875000 1.000000
vt 0.875000 0.500000
vt 0.812500 1.000000
vt 0.812500 0.500000
vt 0.750000 1.000000
vt 0.750000 0.500000
vt 0.687500 1.000000
vt 0.687500 0.500000
vt 0.625000 1.000000
vt 0.625000 0.500000
vt 0.562500 1.000000
vt 0.562500 0.500000
vt 0.500000 1.000000
vt 0.500000 0.500000
vt 0.437500 1.000000
vt 0.437500 0.500000
vt 0.375000 1.000000
vt 0.375000 0.500000
vt 0.312500 1.000000
vt 0.312500 0.500000
vt 0.250000 1.000000
vt 0.250000 0.500000
vt 0.187500 1.000000
vt 0.187500 0.500000
vt 0.125000 1.000000
vt 0.125000 0.500000
vt 0.062500 1.000000
vt 0.062500 0.500000
vt 0.000000 1.000000
vt 0.000000 0.500000
vt 0.750000 0.490000
vt 0.841844 0.471731
vt 0.919706 0.419706
vt 0.971731 0.341844
vt 0.990000 0.250000
vt 0.971731 0.158156
vt 0.919706 0.080294
vt 0.841844 0.028269
vt 0.750000 0.010000
vt 0.658156 0.028269
vt 0.580294 0.080294
vt 0.528269 0.158156
vt 0.510000 0.250000
vt 0.528269 0.341844
vt 0.580294 0.419706
vt 0.658156 0.471731
vt 1.000000 0.500000
vt 1.000000 1.000000
vt 0.666667 1.000000
vt 0.666667 0.500000
vt 0.333333 1.000000
vt 0.333333 0.500000
vt -0.000000 1.000000
vt -0.000000 0.500000
vn 0.1816 0.3660 -0.9127
vn 0.5170 0.3660 -0.7738
vn 0.7738 0.3660 -0.5170
vn 0.9127 0.3660 -0.1816
vn 0.9127 0.3660 0.1816
vn 0.7738 0.3660 0.5170
vn 0.5170 0.3660 0.7738
vn 0.1816 0.3660 0.9127
vn -0.1816 0.3660 0.9127
vn -0.5170 0.3660 0.7738
vn -0.7738 0.3660 0.5170
vn -0.9127 0.3660 0.1816
vn -0.9127 0.3660 -0.1816
vn -0.7738 0.3660 -0.5170
vn -0.5170 0.3660 -0.7738
vn -0.1816 0.3660 -0.9127
vn 0.0000 -1.0000 -0.0000
vn 0.8660 0.0000 -0.5000
vn -0.0000 0.0000 1.0000
vn -0.8660 -0.0000 -0.5000
usemtl None
s off
f 1/1/1 13/2/1 2/3/1
f 2/3/2 13/4/2 3/5/2
f 3/5/3 13/6/3 4/7/3
f 4/7/4 13/8/4 5/9/4
f 5/9/5 13/10/5 6/11/5
f 6/11/6 13/12/6 7/13/6
f 7/13/7 13/14/7 8/15/7
f 8/15/8 13/16/8 9/17/8
f 9/17/9 13/18/9 10/19/9
f 10/19/10 13/20/10 11/21/10
f 11/21/11 13/22/11 12/23/11
f 12/23/12 13/24/12 14/25/12
f 14/25/13 13/26/13 15/27/13
f 15/27/14 13/28/14 16/29/14
f 16/29/15 13/30/15 17/31/15
f 17/31/16 13/32/16 1/33/16
f 1/34/17 2/35/17 3/36/17 4/37/17 5/38/17 6/39/17 7/40/17 8/41/17 9/42/17 10/43/17 11/44/17 12/45/17 14/46/17 15/47/17 16/48/17 17/49/17
f 18/50/18 19/51/18 21/52/18 20/53/18
f 20/53/19 21/52/19 23/54/19 22/55/19
f 22/55/20 23/54/20 19/56/20 18/57/20
